<?xml version="1.0" encoding="UTF-8"?>
<svg width="1248px" height="523px" viewBox="0 0 1248 523" version="1.1" xmlns="http://www.w3.org/2000/svg" xmlns:xlink="http://www.w3.org/1999/xlink">
    <title>Slice</title>
    <g id="Page-1" stroke="none" stroke-width="1" fill="none" fill-rule="evenodd">
        <path d="M1028,2.218 L1031.42623,2.58002701 L1034.3247,2.89640862 L1037.32583,3.23079257 L1041.47296,3.70279589 L1046.86373,4.33128044 L1053.58619,5.13537436 L1060.52364,5.9858504 L1067.61083,6.87416615 L1075.98145,7.94696325 L1080.77644,8.57267371 L1089.11851,9.68072759 L1094.99051,10.476044 L1100.74754,11.2689656 L1106.35183,12.0545487 L1110.69994,12.6744096 L1116.95124,13.5839258 L1143.4395,17.5208932 L1157.61239,26.9171798 L1158.52365,27.5160625 L1159.81258,28.3524442 L1161.7623,29.6029146 L1163.47911,30.7092422 L1164.4047,31.320761 L1164.98056,31.712078 L1165.52477,32.0933404 C1165.6129,32.1561908 1165.69975,32.2187307 1165.78536,32.2810142 L1165.78536,32.2810142 L1166.2842,32.652073 C1169.67384,35.2340232 1170.94367,37.5550231 1171.8275,43.6307485 L1171.8275,43.6307485 L1171.95132,44.5246852 L1172.07102,45.4723083 L1172.18771,46.4762194 L1172.30251,47.5390203 L1172.41656,48.6633125 L1172.58867,50.4707383 L1172.76539,52.431154 L1173.59422,61.9783295 L1173.94231,65.8330347 L1174.29295,69.7826977 L1174.63479,73.7331439 L1175.0765,78.9937365 L1175.50164,84.2367924 L1175.90966,89.4514951 L1176.20413,93.3374084 L1176.58091,98.4764656 L1177.02568,104.817318 L1177.35988,109.810442 L1177.59757,113.501778 L1177.89678,118.343541 L1178.17524,123.083939 L1178.43244,127.712155 L1178.66783,132.217374 L1178.88087,136.588778 L1178.97885,138.720919 L1179.07104,140.815551 L1179.19832,143.884209 L1179.34715,147.83185 L1179.44281,150.678738 L1179.48559,152.115947 L1179.64363,156.853109 L1179.78275,160.492309 L1179.98363,165.094883 L1180.13072,168.026525 L1180.27362,170.503857 L1180.35881,171.780305 L1180.43952,172.82046 L1180.51466,173.601695 L1181.04296,178.029 L1204.74515,190.306672 L1208.52983,192.283739 L1211.33356,193.764136 L1213.94761,195.161711 L1215.18622,195.831512 L1216.9617,196.802313 L1218.64151,197.734919 L1219.71006,198.336818 L1220.73881,198.923814 L1221.72885,199.496735 L1222.68129,200.056411 L1223.5972,200.603671 C1223.74687,200.693892 1223.89506,200.78363 1224.0418,200.872903 L1224.0418,200.872903 L1224.90496,201.403092 L1225.73433,201.922936 C1225.8698,202.008761 1226.00391,202.094189 1226.13668,202.179238 L1226.13668,202.179238 L1226.91739,202.68512 C1227.04489,202.768721 1227.17109,202.851978 1227.29602,202.934907 L1227.29602,202.934907 L1228.03053,203.428691 C1228.15046,203.51038 1228.26917,203.591776 1228.38667,203.672896 L1228.38667,203.672896 L1229.07743,204.156448 L1229.74037,204.634215 L1230.3766,205.107025 C1230.79209,205.420763 1231.19049,205.73175 1231.57327,206.04109 L1231.57327,206.04109 L1232.13588,206.504004 C1232.41151,206.734981 1232.67875,206.965343 1232.93823,207.195556 L1232.93823,207.195556 L1233.44699,207.655922 C1233.86263,208.039624 1234.25782,208.423775 1234.63539,208.810534 L1234.63539,208.810534 L1235.0802,209.276035 L1235.5092,209.744868 C1235.79016,210.058719 1236.0613,210.375343 1236.32408,210.695847 L1236.32408,210.695847 L1236.71215,211.179651 L1237.08877,211.670102 C1237.15064,211.752444 1237.21208,211.835098 1237.27311,211.91808 L1237.27311,211.91808 L1237.63458,212.420058 L1237.9873,212.930755 C1238.04542,213.016644 1238.10322,213.102931 1238.16073,213.189633 L1238.16073,213.189633 L1238.50239,213.714965 L1238.83805,214.25109 L1239.16877,214.798835 L1239.49567,215.359031 L1239.81982,215.932506 L1240.14232,216.520089 L1240.46425,217.122609 L1240.94848,218.056208 C1251.54946,239.018088 1250.04932,269.662359 1237.44816,286.431863 C1236.95311,287.090665 1236.26905,288.742162 1235.44728,291.174788 L1235.44728,291.174788 L1235.11134,292.188997 C1235.05417,292.364808 1234.99642,292.543965 1234.93809,292.726406 L1234.93809,292.726406 L1234.5815,293.859955 C1234.52097,294.055279 1234.45991,294.253762 1234.39833,294.455341 L1234.39833,294.455341 L1234.0227,295.701458 C1233.9591,295.915168 1233.895,296.131849 1233.83043,296.351436 L1233.83043,296.351436 L1233.43743,297.703352 L1233.03374,299.122039 C1232.96561,299.363884 1232.89707,299.608386 1232.82813,299.855482 L1232.82813,299.855482 L1232.4098,301.368685 L1231.98262,302.941136 L1231.54732,304.569828 L1231.10462,306.251751 L1230.42831,308.867862 L1229.97033,310.669699 L1229.27451,313.451576 L1228.57026,316.319373 L1227.86005,319.262935 L1227.38448,321.262386 L1226.66981,324.309655 L1225.95574,327.405609 L1225.00885,331.591725 L1224.30577,334.761783 L1223.84179,336.884023 L1223.15477,340.073162 L1222.48066,343.26021 L1222.03965,345.378732 L1221.60621,347.488802 L1221.18106,349.587411 L1220.56049,352.707254 L1220.15927,354.764047 L1219.57801,357.807061 L1219.20528,359.803233 L1218.67018,362.74121 L1218.3305,364.657954 L1218.00532,366.537661 L1217.69536,368.377323 L1217.1922,371.435549 C1217.13447,371.790934 1217.07739,372.144531 1217.02094,372.496416 L1217.02094,372.496416 L1216.68987,374.587773 L1216.37379,376.641611 L1216.07243,378.661514 L1215.7855,380.651065 L1215.5127,382.613848 L1215.25376,384.553445 C1215.21174,384.874978 1215.17029,385.195694 1215.12939,385.515668 L1215.12939,385.515668 L1214.89069,387.427206 L1214.66511,389.324516 L1214.45238,391.211181 L1214.45238,391.211181 L1214.35074,392.151642 L1214.15674,394.02906 L1213.97486,395.904792 L1213.80481,397.78242 L1213.64632,399.665529 C1213.62085,399.980036 1213.59585,400.294921 1213.57131,400.610258 L1213.57131,400.610258 L1213.42959,402.508306 C1213.38417,403.143196 1213.34056,403.780492 1213.2987,404.420792 L1213.2987,404.420792 L1213.17836,406.351299 L1213.06826,408.303411 C1213.05075,408.630762 1213.03365,408.959163 1213.01696,409.288688 L1213.01696,409.288688 L1212.92171,411.279926 C1212.90663,411.614246 1212.89195,411.94984 1212.87767,412.286781 L1212.87767,412.286781 L1212.7966,414.325207 L1212.72463,416.399569 L1212.66147,418.513452 L1212.60684,420.67044 C1212.59843,421.033728 1212.59036,421.398963 1212.58263,421.766217 L1212.58263,421.766217 L1212.54024,423.994578 L1212.50566,426.275002 L1212.47859,428.61107 L1212.45875,431.006367 L1212.44586,433.464476 L1212.44586,459.616916 L1172.94221,459.616916 L1172.94221,478.382789 L1172.94024,479.961153 L1172.92446,482.903031 L1172.89926,485.140129 L1172.85455,487.573644 L1172.80524,489.39739 L1172.77039,490.404443 L1172.70355,491.940486 L1172.64219,493.043627 L1172.55562,494.269008 L1172.49842,494.923976 L1172.43727,495.519871 L1172.39432,495.884769 L1172.34961,496.224092 L1172.27926,496.685719 L1172.23017,496.962295 L1172.17932,497.214248 L1172.12673,497.44185 L1172.07238,497.645372 L1172.01627,497.825088 L1171.95841,497.981268 C1171.94862,498.005352 1171.93876,498.028466 1171.92883,498.050617 L1171.92883,498.050617 L1171.86834,498.172004 C1171.85811,498.190323 1171.84781,498.20769 1171.83744,498.22411 L1171.83744,498.22411 L1171.77432,498.311316 L1171.7421,498.346484 C1171.50875,498.579394 1170.96425,498.790122 1170.1827,498.967577 L1170.1827,498.967577 L1169.77251,499.05348 C1169.70097,499.067318 1169.62787,499.080912 1169.55324,499.094256 L1169.55324,499.094256 L1169.08765,499.171264 L1168.58769,499.241955 C1168.50161,499.253194 1168.41419,499.264157 1168.32547,499.274837 L1168.32547,499.274837 L1167.77782,499.335477 L1167.20094,499.389032 L1166.59691,499.435193 L1165.96777,499.473652 L1165.31559,499.504101 L1164.64241,499.526231 L1163.9503,499.539736 L1162.93502,499.544893 L1162.03534,499.55354 L1161.16997,499.572093 L1160.34603,499.600004 L1159.57061,499.63673 L1158.85082,499.681725 L1158.19376,499.734443 L1157.79407,499.773611 L1157.42753,499.815807 L1156.94444,499.884428 L1156.66995,499.93349 L1156.43596,499.985015 L1156.24458,500.038843 C1156.04697,500.102921 1155.94065,500.17137 1155.94065,500.243035 C1155.96843,500.381672 1156.03479,500.589627 1156.13331,500.847645 L1156.13331,500.847645 L1156.26655,501.180065 L1156.42819,501.553152 C1156.45736,501.618312 1156.48761,501.684857 1156.51889,501.752635 L1156.51889,501.752635 L1156.7185,502.172859 L1156.94033,502.615264 C1156.97901,502.690436 1157.01852,502.766224 1157.05881,502.842474 L1157.05881,502.842474 L1157.30934,503.304289 L1157.44079,503.537045 C1160.64108,509.126879 1158.24086,517.311994 1152.24031,521.204914 L1152.24031,521.204914 L1152.02243,521.344912 L1151.79885,521.477558 L1151.48664,521.643317 L1151.32248,521.721569 L1151.06367,521.833322 L1150.88145,521.904158 L1150.59135,522.005059 L1150.27847,522.099708 L1150.05573,522.159429 L1149.69816,522.244087 L1149.30977,522.32301 L1149.03223,522.372535 L1148.58577,522.442331 L1148.10044,522.50691 L1147.57324,522.566464 L1147.19702,522.603472 L1146.79996,522.638391 L1146.38116,522.671278 L1144.98541,522.758326 L1143.92986,522.807255 L1142.45718,522.858983 L1140.80122,522.901068 L1138.55248,522.940108 L1135.53781,522.97181 L1130.42773,523 L1121.81898,523 L1116.35932,522.984129 L1113.10711,522.959905 L1110.28111,522.922065 L1108.16967,522.876924 L1106.6113,522.829161 L1105.22125,522.771216 L1104.22122,522.716926 L1103.09973,522.638391 L1102.68833,522.603472 L1102.29686,522.566464 L1101.57027,522.485951 L1100.91295,522.396392 L1100.46122,522.32301 L1100.04158,522.244087 L1099.65108,522.159429 L1099.28678,522.068841 L1098.94572,521.97213 L1098.62495,521.869102 L1098.32153,521.759562 L1098.03251,521.643317 L1097.66445,521.477558 L1097.30975,521.299073 L1096.85118,521.045369 C1090.65833,517.467336 1088.18366,509.430804 1091.4347,503.137771 L1091.4347,503.137771 L1091.64075,502.74803 L1092.02978,501.989025 L1092.29203,501.457847 L1092.58715,500.833225 L1092.75722,500.449867 L1092.87447,500.158656 L1092.91935,500.024241 C1092.92955,499.988111 1092.93484,499.960939 1092.93484,499.943579 C1092.93484,499.921398 1092.88545,499.899216 1092.79107,499.877308 L1092.79107,499.877308 L1092.65649,499.851167 L1092.4804,499.825394 L1092.14212,499.787656 L1091.86962,499.763263 L1091.21948,499.716792 L1090.44038,499.674106 L1089.05944,499.619016 L1087.74301,499.583109 L1086.60042,499.562112 L1085.39293,499.548897 L1083.34206,499.541455 L1082.20396,499.526491 L1081.47959,499.50939 L1080.78361,499.486588 L1080.11677,499.458085 L1079.47985,499.423882 L1078.87361,499.383978 L1078.29882,499.338374 L1077.75624,499.28707 L1077.24664,499.230064 L1076.77079,499.167359 C1076.69433,499.156433 1076.61932,499.145269 1076.54576,499.133868 L1076.54576,499.133868 L1076.12196,499.062612 L1075.73382,498.985655 L1075.38212,498.902997 L1075.0676,498.814639 C1074.62411,498.677827 1074.30873,498.521775 1074.13311,498.346484 C1074.1223,498.335693 1074.11156,498.323972 1074.10089,498.311316 L1074.10089,498.311316 L1074.03777,498.22411 C1074.01703,498.19127 1073.99657,498.154643 1073.97641,498.114184 L1073.97641,498.114184 L1073.9168,497.981268 L1073.85894,497.825088 L1073.80284,497.645372 L1073.74848,497.44185 L1073.69589,497.214248 L1073.64504,496.962295 L1073.59595,496.685719 L1073.54861,496.384248 L1073.50303,496.057611 L1073.43794,495.519871 L1073.37679,494.923976 L1073.31959,494.269008 L1073.26634,493.554048 L1073.20147,492.505864 L1073.14361,491.347221 L1073.06997,489.39739 L1073.02965,487.953084 L1072.99633,486.390706 L1072.96456,484.26838 L1072.94374,481.953917 L1072.93497,479.961153 L1072.933,459.616916 L1028,459.616 L1028,2.218 Z" id="Combined-Shape" fill="#000000" fill-rule="nonzero"></path>
        <path d="M644.240769,-2.87555591 C646.506908,-2.79248099 648.786492,-2.69945104 651.081208,-2.59633974 L653.381032,-2.48986331 L657.082669,-2.30545148 C660.055103,-2.15098039 663.054726,-1.97981263 666.085079,-1.79168325 L668.363661,-1.64740178 L672.187805,-1.39273051 L676.046417,-1.12020691 C684.395494,-0.513924857 692.995103,0.217384268 701.914314,1.07889081 L704.150815,1.29698289 L708.340465,1.71646483 L712.578408,2.15483403 L713.645619,2.26739094 L713.645619,2.26739094 L714.715969,2.38113729 L719.02923,2.84805298 L721.205315,3.08869416 L721.205315,3.08869416 L723.394625,3.33414339 L727.813688,3.83952353 L732.287956,4.36430838 C736.790339,4.89883391 741.377834,5.462639 746.057353,6.0562411 L748.404814,6.35552763 L753.146515,6.96905669 C754.207242,7.10761857 755.272684,7.24766469 756.342917,7.38920072 L757.95187,7.60262291 L762.822415,8.25634129 L767.759686,8.93032681 L769.004609,9.1020034 L769.004609,9.1020034 L770.253824,9.27495568 L775.294064,9.97955752 L776.56509,10.1589151 L776.56509,10.1589151 L777.840551,10.3395592 L782.987217,11.0750361 L788.206754,11.8312401 L803.908201,14.127065 L816.709381,12.230514 L818.725458,11.9389541 L820.892331,11.6315078 L824.810012,11.0873477 L830.855144,10.269025 L838.406901,9.27246877 L845.425738,8.36547327 L852.686725,7.44321442 L861.108246,6.39183472 L870.498609,5.24204085 L877.564435,4.39362753 L884.274267,3.60355412 L890.493038,2.88844071 L893.774168,2.51985605 L897.549681,2.10590167 L900.917142,1.74957422 C901.963072,1.64143754 903.089739,1.53797985 904.290464,1.43917949 L905.019733,1.38045798 L906.840579,1.24408059 L907.31098,1.21098961 L907.31098,1.21098961 L907.787318,1.17829952 L909.750657,1.05154363 C910.197058,1.0240869 910.650085,0.997103967 911.10952,0.970594132 L911.803451,0.931184113 L913.941272,0.817206588 L916.159687,0.709596683 L918.454265,0.608340024 L920.820577,0.513422237 L923.254191,0.424828949 L925.750676,0.342545786 L928.305602,0.266558374 L930.914538,0.196852338 L933.573052,0.133413306 L936.276715,0.0762269024 L939.021095,0.0252787546 L941.801762,-0.0194455117 L944.614284,-0.0579602704 L948.883105,-0.104121024 L951.755882,-0.1271749 L956.094315,-0.150211706 L960.454577,-0.159438826 L963.366161,-0.157942148 L967.729573,-0.144260928 L970.629411,-0.127536941 L974.954435,-0.0910821364 L977.814834,-0.0592206783 L980.651703,-0.0213293858 L983.460613,0.0225773672 L986.237131,0.0724852069 L988.976828,0.128379759 L991.675272,0.190246651 L994.328033,0.258071507 L996.930679,0.331839955 L999.478781,0.41153762 L1001.96791,0.497150129 L1004.39363,0.588663107 L1004.98963,0.612461616 L1004.98963,0.612461616 L1005.58132,0.636627781 L1007.90362,0.736964513 L1010.15144,0.843165779 L1010.70124,0.870630745 L1010.70124,0.870630745 L1011.24603,0.898461122 L1013.37382,1.01343224 L1015.41604,1.13423196 L1015.91271,1.16534092 L1015.91271,1.16534092 L1016.40368,1.19681305 L1018.30926,1.32632872 L1020.1182,1.46163705 C1021.0564,1.53534365 1021.95149,1.61151566 1022.80043,1.69014326 L1023.42843,1.74957422 L1026.84578,2.09562972 L1031.35,2.572 L1028,2.218 L1028,459.616 L220,459.616 L220,0.339 L223.345362,0.0624862905 L226.691743,-0.202459889 C227.801186,-0.288191981 228.904662,-0.371344762 230.002323,-0.451930213 L231.64447,-0.570884388 L234.903049,-0.797275682 L236.519706,-0.904730769 L236.519706,-0.904730769 L238.128093,-1.00837079 L241.320512,-1.20424159 L244.481211,-1.38495994 L246.04995,-1.46965941 L246.04995,-1.46965941 L247.611099,-1.55059772 L250.711083,-1.70122679 L253.782069,-1.83691903 L256.824966,-1.9577463 L258.336164,-2.01260803 L258.336164,-2.01260803 L259.84068,-2.06378047 L262.830119,-2.15509341 C273.248232,-2.44901041 283.200209,-2.47374542 292.8611,-2.24316475 L293.387262,-2.22954656 L293.387262,-2.22954656 L293.912672,-2.2156412 L297.050785,-2.12602737 L299.131142,-2.06019988 L302.238337,-1.95190003 L304.303378,-1.87307618 L307.395542,-1.74447325 L309.455858,-1.65157499 L311.517249,-1.55274512 L314.615058,-1.39300122 L316.686551,-1.27858769 L319.807456,-1.09465977 L321.899642,-0.96358454 L324.00307,-0.825542777 L326.119435,-0.680361997 L329.321948,-0.448827855 L331.47807,-0.285044904 L333.65306,-0.113519233 L335.848613,0.0659216431 L338.066423,0.253450212 L340.308185,0.449238958 L342.575593,0.65346037 L344.870343,0.866286932 L348.367438,1.20203875 L350.737953,1.43713282 L353.14174,1.68143574 L355.580494,1.93512 L358.055908,2.19835808 L361.841476,2.61150595 L364.415957,2.89938323 L367.03303,3.19741803 L371.042205,3.66389292 L375.156745,4.15419248 L379.382367,4.66889886 L382.263985,5.02588326 L386.687455,5.58256131 L391.237258,6.16519855 L394.34347,6.56833263 L399.116538,7.19552884 L405.701862,8.07468684 L412.552448,9.00413418 L417.872621,9.73505217 L441.374788,12.9292433 L466.977147,9.2359598 L472.084012,8.52224333 L475.949998,7.99391323 L479.841733,7.47206754 L485.06304,6.78717066 L488.997468,6.28227894 L492.942741,5.78543478 L498.212244,5.13630486 L503.482477,4.50342698 L507.429254,4.04010266 L511.366008,3.58701433 L515.288267,3.14463093 L520.48767,2.57224904 L525.642754,2.0208434 L529.473608,1.62172353 L534.525632,1.10970107 L538.267018,0.741395155 L540.736109,0.5035998 L543.183521,0.272160087 L545.607929,0.0472149623 L550.382435,-0.382635729 L552.729882,-0.587263402 L556.197571,-0.88094203 L560.714364,-1.24702668 L564.01607,-1.50186714 L567.239188,-1.73928109 L570.379246,-1.95879958 L573.431773,-2.15995367 L576.392297,-2.34227441 L579.256347,-2.50529285 L581.109908,-2.60301674 L582.91728,-2.69181445 L584.677136,-2.77154705 L586.388153,-2.84207559 L640.626164,-3 L644.240769,-2.87555591 Z" id="Combined-Shape" fill="#000000" fill-rule="nonzero"></path>
        <g id="Combined-Shape-2" transform="translate(0.000000, -2.661000)" fill="#000000" fill-rule="nonzero">
            <path d="M220,0 L220,459.277 L170.849854,459.277916 L170.649836,477.045604 L170.349808,494.713474 L162.149052,495.01293 C162.044497,495.017467 161.940407,495.022107 161.836814,495.026848 L161.836814,495.026848 L161.221497,495.056485 L159.745825,495.140421 L158.642718,495.216766 L157.622113,495.300311 L156.918395,495.367153 L156.481606,495.413495 L155.692785,495.509948 L155.343908,495.559834 L154.881947,495.63642 L154.617178,495.688485 L154.388814,495.741226 C154.353875,495.750066 154.320518,495.758929 154.288777,495.767814 L154.288777,495.767814 L154.117978,495.821356 C153.941942,495.884073 153.848287,495.947594 153.848287,496.011114 C153.848287,496.410388 154.548352,497.60821 155.348425,498.606395 C157.548628,501.50113 157.2486,508.787879 154.848379,512.6808 C154.814376,512.736698 154.780463,512.792077 154.746615,512.846942 L154.746615,512.846942 L154.443062,513.326972 L154.240643,513.631947 L154.036784,513.925154 L153.830285,514.206824 L153.619946,514.477187 L153.404566,514.736472 L153.404566,514.736472 L153.294611,514.862033 L153.06942,515.105133 C153.031252,515.144768 152.992748,515.183966 152.953885,515.222731 L152.953885,515.222731 L152.716183,515.450163 L152.46864,515.667439 C152.426496,515.702817 152.383892,515.737783 152.340803,515.772339 L152.340803,515.772339 L152.076249,515.974809 C151.670086,516.27127 151.220585,516.53539 150.709518,516.770661 L150.709518,516.770661 L150.359486,516.923273 C150.239634,516.972745 150.116543,517.02083 149.990011,517.067568 L149.990011,517.067568 L149.599895,517.203774 C149.399477,517.269894 149.190868,517.333067 148.973393,517.393423 L148.973393,517.393423 L148.526422,517.510417 C148.373357,517.548188 148.216153,517.584745 148.054608,517.620128 L148.054608,517.620128 L147.556752,517.722786 C147.386326,517.755855 147.21136,517.787787 147.031654,517.818621 L147.031654,517.818621 L146.478113,517.907863 L145.894929,517.990743 L145.280902,518.06749 L144.634833,518.138334 L143.95552,518.203505 L143.241764,518.263233 L142.492365,518.317748 L141.706123,518.367281 L140.881837,518.41206 L140.018307,518.452317 L139.114334,518.48828 L138.168717,518.52018 L137.180256,518.548248 L136.147751,518.572712 L134.513785,518.603156 L132.169809,518.633283 L130.28256,518.649037 L126.15811,518.666315 L119.311441,518.668261 L113.992726,518.65239 L110.818671,518.628166 L108.056077,518.590326 L105.988638,518.545185 L104.460535,518.497422 L103.095647,518.439477 L102.349659,518.399449 L101.434298,518.339539 L100.603463,518.271733 L100.217666,518.234725 L99.5011636,518.154212 L98.8525774,518.064654 L98.4067114,517.991271 L97.9925086,517.912348 L97.607166,517.82769 L97.2478807,517.737102 L96.9118501,517.640391 L96.5962711,517.537363 L96.2983409,517.427823 L96.0152567,517.311578 L95.6560604,517.145819 L95.3967168,517.013173 L94.8502053,516.713893 C88.4748748,513.14736 86.2928069,505.493869 89.6423694,498.90585 L89.6423694,498.90585 L91.6425537,495.212567 L82.2416873,495.212567 L80.3314996,495.207657 L78.9952005,495.194712 L78.0973053,495.178229 L77.2834178,495.154859 L76.7850894,495.134972 L76.1003805,495.09796 L75.4866781,495.051466 L75.1145836,495.01472 L74.7704362,494.97304 L74.4527911,494.926135 C74.4019786,494.917866 74.3522101,494.909368 74.3034556,494.900634 L74.3034556,494.900634 L74.0228557,494.845353 C73.9332178,494.825951 73.8473951,494.805559 73.7651467,494.784127 L73.7651467,494.784127 L73.5288842,494.716668 L73.3126236,494.642688 L73.1149201,494.561898 C72.9260138,494.477607 72.7627766,494.382668 72.6187077,494.275785 L72.6187077,494.275785 L72.4807876,494.164872 L72.3542019,494.045707 C72.3137352,494.004578 72.2749168,493.962026 72.2375059,493.918002 L72.2375059,493.918002 L72.1292552,493.781469 L72.0280052,493.635819 L71.9323111,493.480764 C71.9011786,493.42748 71.8707314,493.372579 71.8407286,493.316016 L71.8407286,493.316016 L71.8113799,493.256647 C71.7821941,493.191934 71.7535001,493.111259 71.7253216,493.015263 L71.7253216,493.015263 L71.6696589,492.803033 L71.6154132,492.551087 L71.5626269,492.260565 L71.5113421,491.932606 L71.4616012,491.56835 L71.4134464,491.168938 L71.344281,490.506395 L71.3002768,490.024079 L71.2175133,488.967084 L71.1601966,488.09801 L71.090387,486.844788 L71.0284448,485.491976 L70.9625962,483.674802 L70.9295164,482.524053 L70.8855571,480.517745 L70.8561379,478.416381 L70.8435154,476.678819 L70.8406365,459.277916 L34.8373181,459.277916 L35.477306,441.915892 C35.7170872,434.992203 35.7073583,427.874864 35.4405737,420.513212 L35.4405737,420.513212 L35.3477724,418.180299 C35.2633026,416.229339 35.1609762,414.26109 35.0406556,412.27463 L35.0406556,412.27463 L34.8876249,409.882076 C34.8606773,409.481841 34.8330077,409.080862 34.8046151,408.679133 L34.8046151,408.679133 L34.6255738,406.259689 C34.5942845,405.854928 34.56227,405.449401 34.5295291,405.043101 L34.5295291,405.043101 L34.3243583,402.59597 L34.101702,400.129938 C33.8702853,397.654336 33.6125609,395.14985 33.3282913,392.614885 L33.3282913,392.614885 L33.0351645,390.0697 L32.7242881,387.503841 C31.9781607,381.492441 31.0866467,375.309304 30.0467275,368.934162 L30.0467275,368.934162 L29.591953,366.190144 L29.1189536,363.42226 C28.6368241,360.642325 28.1272782,357.826061 27.5900781,354.971871 L27.5900781,354.971871 L27.0436511,352.10498 L26.4787352,349.212451 C26.3830389,348.728207 26.28657,348.242879 26.1893275,347.756462 L26.1893275,347.756462 L25.5965792,344.824811 C25.4962376,344.334002 25.3951201,343.842087 25.2932256,343.349061 L25.2932256,343.349061 L24.6725262,340.37749 C24.5675194,339.879983 24.4617334,339.381349 24.3551672,338.88158 L24.3551672,338.88158 L23.7063978,335.869292 L23.0388491,332.829415 L22.3524682,329.761596 C22.004561,328.220642 21.6495718,326.669076 21.2874712,325.106699 L21.2874712,325.106699 L20.5537789,321.967471 L19.8010698,318.79906 L19.0292908,315.60111 C18.8990689,315.065637 18.7680503,314.528919 18.6362337,313.990948 L18.6362337,313.990948 L17.8357511,310.748026 L17.0037584,307.412111 L16.362905,304.886797 L15.8808783,303.021907 L15.2027806,300.464681 L14.881557,299.286775 L14.3687649,297.461078 L14.0728338,296.442626 L13.689664,295.167455 L13.4094052,294.268757 L13.2253408,293.695209 L12.8623951,292.604998 L12.5934294,291.83316 L12.3260137,291.09683 L12.0590409,290.392621 L11.7914038,289.717142 L11.4316074,288.85534 L11.1581146,288.233723 L10.880267,287.629541 L10.5011158,286.845228 L10.3070788,286.459926 L10.0095238,285.887717 L9.70318532,285.319387 L9.17009534,284.371589 L8.83492155,283.797038 C8.63490312,283.468603 8.43925553,283.143076 8.24788816,282.820123 L8.24788816,282.820123 L7.68653603,281.858648 C3.38844259,274.382314 1.40403963,268.142036 0.557015754,258.789414 L0.557015754,258.789414 L0.454973016,257.57822 L0.36474366,256.331201 C0.336575679,255.909334 0.310285954,255.481161 0.285783847,255.046347 L0.285783847,255.046347 L0.217549737,253.721647 C0.207040981,253.497432 0.196956469,253.271472 0.187284872,253.043727 L0.187284872,253.043727 L0.106150826,250.94997 L0.0596483752,249.575716 C0.0529665834,249.350647 0.0468258559,249.127528 0.0412363267,248.906301 L0.0412363267,248.906301 L0.0143946019,247.601191 C0,247.387306 0,247.1752 0,246.964816 L0,246.964816 L0,245.722724 C0,236.75894 1.18068693,230.909527 4.38210456,223.342017 L4.38210456,223.342017 L4.83131572,222.29898 C4.90830679,222.123215 4.98636589,221.946448 5.06550315,221.768624 L5.06550315,221.768624 L5.55334578,220.688534 L6.06755074,219.580337 L6.33469111,219.014848 C9.73500451,211.628281 16.9356682,203.443166 21.8361198,201.047523 L21.8361198,201.047523 L22.4168006,200.759509 L24.6385437,199.62619 L30.6010173,196.536929 L40.1070166,191.573829 L55.1504919,183.677656 L65.3401295,178.288911 L71.3406825,174.994901 L70.640618,163.615595 L70.5161714,161.461904 L70.3354149,158.197585 L70.218895,156.000884 L69.9955472,151.564583 L69.7853142,147.080378 L69.6851878,144.823797 L69.5413167,141.42475 L69.3614345,136.873545 L69.195416,132.310688 L69.0801388,128.887608 L68.9389362,124.331198 L68.8122309,119.79381 L68.7002534,115.286598 L68.603234,110.820715 L68.5214033,106.407316 L68.4549916,102.057554 L68.4042293,97.782585 L68.3693469,93.5935618 L68.3579326,91.5347656 L68.3473021,87.4955755 L68.3501157,84.5402748 L68.362283,81.6537099 L68.3932243,77.9200123 L68.4150675,76.1056101 L68.4411975,74.3280313 L68.4716431,72.5886702 L68.5254663,70.0543367 L68.5891615,67.6138358 L68.6371576,66.0412882 L68.7175224,63.7676319 L68.7767214,62.3106711 L68.8832994,59.9680365 L69.0871883,55.848157 L69.2563289,52.7694336 L69.5096688,48.6273176 L69.7715093,44.86632 L69.9302551,42.8295765 L70.0623552,41.2753323 L70.2195534,39.5984853 L70.3485903,38.3710005 L70.4500083,37.5081989 L70.5494096,36.7574938 L70.646419,36.1245648 L70.7173806,35.7305753 L70.7866275,35.4084259 L70.8317612,35.234754 L70.8760156,35.094786 L70.9193436,34.9892317 L70.9703757,34.8966112 C70.9818541,34.8779396 70.9948933,34.8582588 71.0094705,34.8375853 L71.0094705,34.8375853 L71.1152099,34.7017656 C71.1358489,34.6771881 71.1579805,34.6516512 71.1815822,34.6251715 L71.1815822,34.6251715 L71.3406515,34.4551141 L71.5339129,34.2632298 L71.7602772,34.050317 L72.0186557,33.8171743 L72.4638675,33.431276 L72.9749855,33.0043524 L73.7526442,32.3759619 L74.8670224,31.5043802 L75.8617511,30.746026 L76.9387985,29.9402913 L78.3875964,28.8762263 L79.9343894,27.7605885 L81.5621621,26.6058551 L83.5984248,25.186137 L84.6419085,24.4686418 L97.3430791,15.884253 L116.144812,12.9895172 L120.800792,12.2795563 L125.396474,11.5870118 C126.157447,11.4730351 126.915945,11.359781 127.671987,11.2472482 L127.671987,11.2472482 L132.178923,10.5806933 L136.627828,9.93137515 L141.019611,9.29922176 L145.355178,8.68416128 L149.635436,8.08612185 C150.344254,7.98786304 151.050805,7.89031045 151.755109,7.79346257 L151.755109,7.79346257 L155.954106,7.22081995 C156.649494,7.12678496 157.342671,7.03345169 158.033658,6.94081865 L158.033658,6.94081865 L162.153435,6.39341114 C162.835733,6.30357302 163.515878,6.21443213 164.193888,6.12598697 L164.193888,6.12598697 L168.236487,5.60365287 C168.906035,5.51798466 169.573486,5.43300919 170.23886,5.34872497 L170.23886,5.34872497 L174.206322,4.85130256 L178.124827,4.37039811 L181.995281,3.90593976 C182.636403,3.82989654 183.275561,3.75453559 183.912773,3.6798554 L183.912773,3.6798554 L187.712854,3.23993143 C188.34236,3.1679683 188.969959,3.09668294 189.595669,3.02607384 L189.595669,3.02607384 L193.327417,2.61052255 L197.014745,2.21112987 L200.658558,1.82782393 C203.073465,1.57763292 205.459966,1.33811849 207.819274,1.10918482 L207.819274,1.10918482 L211.33799,0.773707901 C213.087302,0.60992525 214.821657,0.452067324 216.541565,0.300093696 L216.541565,0.300093696 L219.962272,0.00398019604 L220,0 Z" id="Combined-Shape"></path>
        </g>
    </g>
</svg>