<?xml version="1.0" encoding="UTF-8"?>
<svg width="808px" height="517px" viewBox="0 0 808 517" version="1.1" xmlns="http://www.w3.org/2000/svg" xmlns:xlink="http://www.w3.org/1999/xlink">
    <title>middle</title>
    <g id="Page-1" stroke="none" stroke-width="1" fill="none" fill-rule="evenodd">
        <path d="M424.240769,-4.87555591 C426.506908,-4.79248099 428.786492,-4.69945104 431.081208,-4.59633974 L433.381032,-4.48986331 L437.082669,-4.30545148 C440.055103,-4.15098039 443.054726,-3.97981263 446.085079,-3.79168325 L448.363661,-3.64740178 L452.187805,-3.39273051 L456.046417,-3.12020691 C464.395494,-2.51392486 472.995103,-1.78261573 481.914314,-0.921109188 L484.150815,-0.703017113 L488.340465,-0.283535166 L492.578408,0.154834034 L493.645619,0.267390943 L493.645619,0.267390943 L494.715969,0.381137289 L499.02923,0.848052975 L501.205315,1.08869416 L501.205315,1.08869416 L503.394625,1.33414339 L507.813688,1.83952353 L512.287956,2.36430838 C516.790339,2.89883391 521.377834,3.462639 526.057353,4.0562411 L528.404814,4.35552763 L533.146515,4.96905669 C534.207242,5.10761857 535.272684,5.24766469 536.342917,5.38920072 L537.95187,5.60262291 L542.822415,6.25634129 L547.759686,6.93032681 L549.004609,7.1020034 L549.004609,7.1020034 L550.253824,7.27495568 L555.294064,7.97955752 L556.56509,8.15891515 L556.56509,8.15891515 L557.840551,8.33955924 L562.987217,9.07503613 L568.206754,9.83124013 L583.908201,12.127065 L596.709381,10.230514 L598.725458,9.93895409 L600.892331,9.63150781 L604.810012,9.08734773 L610.855144,8.26902501 L618.406901,7.27246877 L625.425738,6.36547327 L632.686725,5.44321442 L641.108246,4.39183472 L650.498609,3.24204085 L657.564435,2.39362753 L664.274267,1.60355412 L670.493038,0.888440705 L673.774168,0.519856046 L677.549681,0.105901672 L680.917142,-0.250425777 C681.963072,-0.358562458 683.089739,-0.462020147 684.290464,-0.560820508 L685.019733,-0.619542018 L686.840579,-0.755919407 L687.31098,-0.789010392 L687.31098,-0.789010392 L687.787318,-0.821700481 L689.750657,-0.948456368 C690.197058,-0.975913103 690.650085,-1.00289603 691.10952,-1.02940587 L691.803451,-1.06881589 L693.941272,-1.18279341 L696.159687,-1.29040332 L698.454265,-1.39165998 L700.820577,-1.48657776 L703.254191,-1.57517105 L705.750676,-1.65745421 L708.305602,-1.73344163 L710.914538,-1.80314766 L713.573052,-1.86658669 L716.276715,-1.9237731 L719.021095,-1.97472125 L721.801762,-2.01944551 L724.614284,-2.05796027 L728.883105,-2.10412102 L731.755882,-2.1271749 L736.094315,-2.15021171 L740.454577,-2.15943883 L743.366161,-2.15794215 L747.729573,-2.14426093 L750.629411,-2.12753694 L754.954435,-2.09108214 L757.814834,-2.05922068 L760.651703,-2.02132939 L763.460613,-1.97742263 L766.237131,-1.92751479 L768.976828,-1.87162024 L771.675272,-1.80975335 L774.328033,-1.74192849 L776.930679,-1.66816004 L779.478781,-1.58846238 L781.967906,-1.50284987 L784.393625,-1.41133689 L784.989629,-1.38753838 L784.989629,-1.38753838 L785.581323,-1.36337222 L787.903624,-1.26303549 L790.151441,-1.15683422 L790.701239,-1.12936925 L790.701239,-1.12936925 L791.246034,-1.10153888 L793.373819,-0.98656776 L795.416042,-0.865768041 L795.91271,-0.834659077 L795.91271,-0.834659077 L796.403684,-0.803186949 L798.309259,-0.67367128 L800.118196,-0.538362947 C801.056405,-0.464656346 801.951491,-0.388484341 802.80043,-0.309856745 L803.428434,-0.250425777 L806.845776,0.0956297243 L811.35,0.572 L808,0.218 L808,457.616 L-5.68434189e-14,457.616 L-5.68434189e-14,-1.661 L3.34536202,-1.93751371 L6.69174325,-2.20245989 C7.8011863,-2.28819198 8.90466241,-2.37134476 10.0023228,-2.45193021 L11.6444704,-2.57088439 L14.9030486,-2.79727568 L16.5197059,-2.90473077 L16.5197059,-2.90473077 L18.1280932,-3.00837079 L21.3205116,-3.20424159 L24.4812112,-3.38495994 L26.0499498,-3.46965941 L26.0499498,-3.46965941 L27.611099,-3.55059772 L30.7110825,-3.70122679 L33.782069,-3.83691903 L36.8249656,-3.9577463 L38.3361638,-4.01260803 L38.3361638,-4.01260803 L39.8406798,-4.06378047 L42.8301187,-4.15509341 C53.2482318,-4.44901041 63.2002091,-4.47374542 72.8610995,-4.24316475 L73.3872624,-4.22954656 L73.3872624,-4.22954656 L73.9126717,-4.2156412 L77.0507849,-4.12602737 L79.1311422,-4.06019988 L82.2383375,-3.95190003 L84.3033784,-3.87307618 L87.3955423,-3.74447325 L89.4558578,-3.65157499 L91.5172486,-3.55274512 L94.6150578,-3.39300122 L96.6865505,-3.27858769 L99.8074559,-3.09465977 L101.899642,-2.96358454 L104.00307,-2.82554278 L106.119435,-2.680362 L109.321948,-2.44882785 L111.47807,-2.2850449 L113.65306,-2.11351923 L115.848613,-1.93407836 L118.066423,-1.74654979 L120.308185,-1.55076104 L122.575593,-1.34653963 L124.870343,-1.13371307 L128.367438,-0.797961252 L130.737953,-0.562867184 L133.14174,-0.318564263 L135.580494,-0.0648800028 L138.055908,0.198358083 L141.841476,0.61150595 L144.415957,0.899383228 L147.03303,1.19741803 L151.042205,1.66389292 L155.156745,2.15419248 L159.382367,2.66889886 L162.263985,3.02588326 L166.687455,3.58256131 L171.237258,4.16519855 L174.34347,4.56833263 L179.116538,5.19552884 L185.701862,6.07468684 L192.552448,7.00413418 L197.872621,7.73505217 L221.374788,10.9292433 L246.977147,7.2359598 L252.084012,6.52224333 L255.949998,5.99391323 L259.841733,5.47206754 L265.06304,4.78717066 L268.997468,4.28227894 L272.942741,3.78543478 L278.212244,3.13630486 L283.482477,2.50342698 L287.429254,2.04010266 L291.366008,1.58701433 L295.288267,1.14463093 L300.48767,0.572249041 L305.642754,0.0208434042 L309.473608,-0.378276473 L314.525632,-0.89029893 L318.267018,-1.25860484 L320.736109,-1.4964002 L323.183521,-1.72783991 L325.607929,-1.95278504 L330.382435,-2.38263573 L332.729882,-2.5872634 L336.197571,-2.88094203 L340.714364,-3.24702668 L344.01607,-3.50186714 L347.239188,-3.73928109 L350.379246,-3.95879958 L353.431773,-4.15995367 L356.392297,-4.34227441 L359.256347,-4.50529285 L361.109908,-4.60301674 L362.91728,-4.69181445 L364.677136,-4.77154705 L366.388153,-4.84207559 L420.626164,-5 L424.240769,-4.87555591 Z" id="Combined-Shape" fill="#000000" fill-rule="nonzero"></path>
    </g>
</svg>