<?xml version="1.0" encoding="UTF-8"?>
<svg width="217px" height="526px" viewBox="0 0 217 526" version="1.1" xmlns="http://www.w3.org/2000/svg" xmlns:xlink="http://www.w3.org/1999/xlink">
    <title>right</title>
    <g id="Page-1" stroke="none" stroke-width="1" fill="none" fill-rule="evenodd">
        <path d="M-3,5.218 L0.426234098,5.58002701 L3.32469559,5.89640862 L6.32583019,6.23079257 L10.4729624,6.70279589 L15.8637269,7.33128044 L22.5861898,8.13537436 L29.5236354,8.9858504 L36.6108272,9.87416615 L44.9814477,10.9469633 L49.7764373,11.5726737 L58.1185136,12.6807276 L63.9905132,13.476044 L69.7475379,14.2689656 L75.3518349,15.0545487 L79.6999389,15.6744096 L85.9512355,16.5839258 L112.439495,20.5208932 L126.612395,29.9171798 L127.523647,30.5160625 L128.812579,31.3524442 L130.762299,32.6029146 L132.479108,33.7092422 L133.404698,34.320761 L133.980558,34.712078 L134.524768,35.0933404 C134.612895,35.1561908 134.69975,35.2187307 134.785356,35.2810142 L134.785356,35.2810142 L135.284199,35.652073 C138.673844,38.2340232 139.943672,40.5550231 140.8275,46.6307485 L140.8275,46.6307485 L140.951323,47.5246852 L141.071017,48.4723083 L141.187706,49.4762194 L141.302514,50.5390203 L141.416563,51.6633125 L141.588671,53.4707383 L141.765392,55.431154 L142.594217,64.9783295 L142.942306,68.8330347 L143.292946,72.7826977 L143.634788,76.7331439 L144.076503,81.9937365 L144.50164,87.2367924 L144.909663,92.4514951 L145.204126,96.3374084 L145.580908,101.476466 L146.025681,107.817318 L146.359882,112.810442 L146.597571,116.501778 L146.896775,121.343541 L147.175245,126.083939 L147.432442,130.712155 L147.66783,135.217374 L147.880874,139.588778 L147.978849,141.720919 L148.071036,143.815551 L148.198319,146.884209 L148.347147,150.83185 L148.442813,153.678738 L148.485595,155.115947 L148.643632,159.853109 L148.782752,163.492309 L148.983633,168.094883 L149.130724,171.026525 L149.27362,173.503857 L149.358811,174.780305 L149.439523,175.82046 L149.514664,176.601695 L150.042961,181.029 L173.745145,193.306672 L177.529832,195.283739 L180.333561,196.764136 L182.947606,198.161711 L184.18622,198.831512 L185.961698,199.802313 L187.641511,200.734919 L188.710056,201.336818 L189.738807,201.923814 L190.728855,202.496735 L191.681289,203.056411 L192.597199,203.603671 C192.746867,203.693892 192.895059,203.78363 193.041798,203.872903 L193.041798,203.872903 L193.904964,204.403092 L194.734331,204.922936 C194.869803,205.008761 195.003912,205.094189 195.13668,205.179238 L195.13668,205.179238 L195.91739,205.68512 C196.044889,205.768721 196.171092,205.851978 196.296024,205.934907 L196.296024,205.934907 L197.030529,206.428691 C197.150463,206.51038 197.26917,206.591776 197.386673,206.672896 L197.386673,206.672896 L198.077426,207.156448 L198.740371,207.634215 L199.3766,208.107025 C199.792089,208.420763 200.190494,208.73175 200.573266,209.04109 L200.573266,209.04109 L201.135883,209.504004 C201.41151,209.734981 201.678754,209.965343 201.938226,210.195556 L201.938226,210.195556 L202.446991,210.655922 C202.862629,211.039624 203.257816,211.423775 203.635388,211.810534 L203.635388,211.810534 L204.080201,212.276035 L204.509195,212.744868 C204.79016,213.058719 205.061305,213.375343 205.324082,213.695847 L205.324082,213.695847 L205.712154,214.179651 L206.088766,214.670102 C206.15064,214.752444 206.212081,214.835098 206.273114,214.91808 L206.273114,214.91808 L206.634577,215.420058 L206.987303,215.930755 C207.045423,216.016644 207.103225,216.102931 207.16073,216.189633 L207.16073,216.189633 L207.502394,216.714965 L207.838046,217.25109 L208.168775,217.798835 L208.49567,218.359031 L208.819822,218.932506 L209.14232,219.520089 L209.464255,220.122609 L209.948482,221.056208 C220.549459,242.018088 219.049321,272.662359 206.44816,289.431863 C205.953114,290.090665 205.269051,291.742162 204.447275,294.174788 L204.447275,294.174788 L204.111342,295.188997 C204.054169,295.364808 203.996415,295.543965 203.938095,295.726406 L203.938095,295.726406 L203.581495,296.859955 C203.52097,297.055279 203.459908,297.253762 203.398326,297.455341 L203.398326,297.455341 L203.022702,298.701458 C202.959097,298.915168 202.895002,299.131849 202.830431,299.351436 L202.830431,299.351436 L202.437425,300.703352 L202.033743,302.122039 C201.965614,302.363884 201.89707,302.608386 201.828127,302.855482 L201.828127,302.855482 L201.409798,304.368685 L200.982618,305.941136 L200.547316,307.569828 L200.104621,309.251751 L199.428313,311.867862 L198.970328,313.669699 L198.274506,316.451576 L197.57026,319.319373 L196.860051,322.262935 L196.384482,324.262386 L195.669809,327.309655 L194.955741,330.405609 L194.008848,334.591725 L193.305768,337.761783 L192.841792,339.884023 L192.154769,343.073162 L191.480665,346.26021 L191.039655,348.378732 L190.60621,350.488802 L190.18106,352.587411 L189.560486,355.707254 L189.159266,357.764047 L188.578007,360.807061 L188.205278,362.803233 L187.670175,365.74121 L187.330498,367.657954 L187.005317,369.537661 L186.695364,371.377323 L186.192201,374.435549 C186.134474,374.790934 186.077391,375.144531 186.020945,375.496416 L186.020945,375.496416 L185.689865,377.587773 L185.373789,379.641611 L185.072429,381.661514 L184.785495,383.651065 L184.512701,385.613848 L184.253759,387.553445 C184.21174,387.874978 184.170287,388.195694 184.129392,388.515668 L184.129392,388.515668 L183.890687,390.427206 L183.665113,392.324516 L183.452383,394.211181 L183.452383,394.211181 L183.350745,395.151642 L183.15674,397.02906 L182.974859,398.904792 L182.804814,400.78242 L182.646316,402.665529 C182.620846,402.980036 182.595845,403.294921 182.571308,403.610258 L182.571308,403.610258 L182.429592,405.508306 C182.384174,406.143196 182.34056,406.780492 182.298704,407.420792 L182.298704,407.420792 L182.178355,409.351299 L182.068258,411.303411 C182.050747,411.630762 182.033651,411.959163 182.016965,412.288688 L182.016965,412.288688 L181.921706,414.279926 C181.906631,414.614246 181.891954,414.94984 181.877669,415.286781 L181.877669,415.286781 L181.7966,417.325207 L181.724631,419.399569 L181.661473,421.513452 L181.60684,423.67044 C181.598429,424.033728 181.590361,424.398963 181.58263,424.766217 L181.58263,424.766217 L181.540243,426.994578 L181.50566,429.275002 L181.478593,431.61107 L181.458754,434.006367 L181.445855,436.464476 L181.445855,462.616916 L141.942214,462.616916 L141.942214,481.382789 L141.940242,482.961153 L141.924462,485.903031 L141.899259,488.140129 L141.854551,490.573644 L141.80524,492.39739 L141.770394,493.404443 L141.703551,494.940486 L141.642187,496.043627 L141.555619,497.269008 L141.498419,497.923976 L141.437274,498.519871 L141.394319,498.884769 L141.34961,499.224092 L141.279261,499.685719 L141.230169,499.962295 L141.179324,500.214248 L141.126726,500.44185 L141.072375,500.645372 L141.016271,500.825088 L140.958413,500.981268 C140.948624,501.005352 140.938762,501.028466 140.928827,501.050617 L140.928827,501.050617 L140.868339,501.172004 C140.858111,501.190323 140.847811,501.20769 140.837438,501.22411 L140.837438,501.22411 L140.77432,501.311316 L140.742104,501.346484 C140.508749,501.579394 139.964254,501.790122 139.182701,501.967577 L139.182701,501.967577 L138.772512,502.05348 C138.700969,502.067318 138.627866,502.080912 138.553245,502.094256 L138.553245,502.094256 L138.087649,502.171264 L137.587689,502.241955 C137.501613,502.253194 137.414191,502.264157 137.325465,502.274837 L137.325465,502.274837 L136.777815,502.335477 L136.200944,502.389032 L135.596911,502.435193 L134.967772,502.473652 L134.315585,502.504101 L133.64241,502.526231 L132.950302,502.539736 L131.935024,502.544893 L131.035336,502.55354 L130.16997,502.572093 L129.346028,502.600004 L128.570611,502.63673 L127.850821,502.681725 L127.193759,502.734443 L126.794073,502.773611 L126.427526,502.815807 L125.944444,502.884428 L125.66995,502.93349 L125.435959,502.985015 L125.244576,503.038843 C125.046969,503.102921 124.940647,503.17137 124.940647,503.243035 C124.968428,503.381672 125.034792,503.589627 125.133309,503.847645 L125.133309,503.847645 L125.266552,504.180065 L125.428192,504.553152 C125.457362,504.618312 125.487611,504.684857 125.51889,504.752635 L125.51889,504.752635 L125.718497,505.172859 L125.940328,505.615264 C125.979015,505.690436 126.018524,505.766224 126.058806,505.842474 L126.058806,505.842474 L126.309343,506.304289 L126.440786,506.537045 C129.641081,512.126879 127.240859,520.311994 121.240306,524.204914 L121.240306,524.204914 L121.022434,524.344912 L120.798848,524.477558 L120.486637,524.643317 L120.322481,524.721569 L120.063673,524.833322 L119.881449,524.904158 L119.591354,525.005059 L119.278469,525.099708 L119.05573,525.159429 L118.698165,525.244087 L118.309774,525.32301 L118.032232,525.372535 L117.585768,525.442331 L117.100441,525.50691 L116.573239,525.566464 L116.197019,525.603472 L115.799955,525.638391 L115.381155,525.671278 L113.985407,525.758326 L112.929857,525.807255 L111.45718,525.858983 L109.801217,525.901068 L107.552478,525.940108 L104.537814,525.97181 L99.4277252,526 L90.8189774,526 L85.3593242,525.984129 L82.1071058,525.959905 L79.2811092,525.922065 L77.1696694,525.876924 L75.6113007,525.829161 L74.2212476,525.771216 L73.2212186,525.716926 L72.0997323,525.638391 L71.688328,525.603472 L71.2968647,525.566464 L70.5702665,525.485951 L69.9129483,525.396392 L69.4612201,525.32301 L69.0415816,525.244087 L68.6510842,525.159429 L68.2867793,525.068841 L67.945718,524.97213 L67.6249519,524.869102 L67.3215321,524.759562 L67.03251,524.643317 L66.6644473,524.477558 L66.309749,524.299073 L65.8511805,524.045369 C59.6583328,520.467336 57.183656,512.430804 60.4347019,506.137771 L60.4347019,506.137771 L60.6407536,505.74803 L61.0297761,504.989025 L61.292026,504.457847 L61.5871465,503.833225 L61.7572205,503.449867 L61.8744747,503.158656 L61.9193543,503.024241 C61.9295467,502.988111 61.9348402,502.960939 61.9348402,502.943579 C61.9348402,502.921398 61.8854529,502.899216 61.7910684,502.877308 L61.7910684,502.877308 L61.6564892,502.851167 L61.4803983,502.825394 L61.1421153,502.787656 L60.8696205,502.763263 L60.2194821,502.716792 L59.4403837,502.674106 L58.0594367,502.619016 L56.7430135,502.583109 L55.6004248,502.562112 L54.3929347,502.548897 L52.3420552,502.541455 L51.2039604,502.526491 L50.4795919,502.50939 L49.7836064,502.486588 L49.1167699,502.458085 L48.4798487,502.423882 L47.8736089,502.383978 L47.2988168,502.338374 L46.7562384,502.28707 L46.2466399,502.230064 L45.7707875,502.167359 C45.6943335,502.156433 45.6193175,502.145269 45.5457555,502.133868 L45.5457555,502.133868 L45.1219588,502.062612 L44.7338236,501.985655 L44.3821161,501.902997 L44.0676024,501.814639 C43.6241103,501.677827 43.3087332,501.521775 43.1331073,501.346484 C43.1222955,501.335693 43.1115567,501.323972 43.100891,501.311316 L43.100891,501.311316 L43.0377735,501.22411 C43.0170265,501.19127 42.9965717,501.154643 42.9764092,501.114184 L42.9764092,501.114184 L42.9167981,500.981268 L42.8589403,500.825088 L42.8028358,500.645372 L42.7484846,500.44185 L42.6958866,500.214248 L42.6450419,499.962295 L42.5959504,499.685719 L42.5486122,499.384248 L42.5030273,499.057611 L42.4379373,498.519871 L42.3767922,497.923976 L42.3195919,497.269008 L42.2663364,496.554048 L42.2014656,495.505864 L42.1436078,494.347221 L42.0699706,492.39739 L42.0296455,490.953084 L41.9963334,489.390706 L41.9645555,487.26838 L41.9437354,484.953917 L41.9349691,482.961153 L41.9329967,462.616916 L-3,462.616 L-3,5.218 Z" id="Combined-Shape" fill="#000000" fill-rule="nonzero"></path>
        <path d="M-386.759231,0.124444091 C-384.493092,0.207519015 -382.213508,0.300548959 -379.918792,0.403660258 L-377.618968,0.510136687 L-373.917331,0.694548523 C-370.944897,0.849019608 -367.945274,1.02018737 -364.914921,1.20831675 L-362.636339,1.35259822 L-358.812195,1.60726949 L-354.953583,1.87979309 C-346.604506,2.48607514 -338.004897,3.21738427 -329.085686,4.07889081 L-326.849185,4.29698289 L-322.659535,4.71646483 L-318.421592,5.15483403 L-317.354381,5.26739094 L-317.354381,5.26739094 L-316.284031,5.38113729 L-311.97077,5.84805298 L-309.794685,6.08869416 L-309.794685,6.08869416 L-307.605375,6.33414339 L-303.186312,6.83952353 L-298.712044,7.36430838 C-294.209661,7.89883391 -289.622166,8.462639 -284.942647,9.0562411 L-282.595186,9.35552763 L-277.853485,9.96905669 C-276.792758,10.1076186 -275.727316,10.2476647 -274.657083,10.3892007 L-273.04813,10.6026229 L-268.177585,11.2563413 L-263.240314,11.9303268 L-261.995391,12.1020034 L-261.995391,12.1020034 L-260.746176,12.2749557 L-255.705936,12.9795575 L-254.43491,13.1589151 L-254.43491,13.1589151 L-253.159449,13.3395592 L-248.012783,14.0750361 L-242.793246,14.8312401 L-227.091799,17.127065 L-214.290619,15.230514 L-212.274542,14.9389541 L-210.107669,14.6315078 L-206.189988,14.0873477 L-200.144856,13.269025 L-192.593099,12.2724688 L-185.574262,11.3654733 L-178.313275,10.4432144 L-169.891754,9.39183472 L-160.501391,8.24204085 L-153.435565,7.39362753 L-146.725733,6.60355412 L-140.506962,5.88844071 L-137.225832,5.51985605 L-133.450319,5.10590167 L-130.082858,4.74957422 C-129.036928,4.64143754 -127.910261,4.53797985 -126.709536,4.43917949 L-125.980267,4.38045798 L-124.159421,4.24408059 L-123.68902,4.21098961 L-123.68902,4.21098961 L-123.212682,4.17829952 L-121.249343,4.05154363 C-120.802942,4.0240869 -120.349915,3.99710397 -119.89048,3.97059413 L-119.196549,3.93118411 L-117.058728,3.81720659 L-114.840313,3.70959668 L-112.545735,3.60834002 L-110.179423,3.51342224 L-107.745809,3.42482895 L-105.249324,3.34254579 L-102.694398,3.26655837 L-100.085462,3.19685234 L-97.4269477,3.13341331 L-94.723285,3.0762269 L-91.9789048,3.02527875 L-89.1982381,2.98055449 L-86.3857157,2.94203973 L-82.116895,2.89587898 L-79.244118,2.8728251 L-74.9056848,2.84978829 L-70.5454228,2.84056117 L-67.6338391,2.84205785 L-63.2704268,2.85573907 L-60.3705892,2.87246306 L-56.0455654,2.90891786 L-53.1851664,2.94077932 L-50.3482967,2.97867061 L-47.5393872,3.02257737 L-44.7628687,3.07248521 L-42.023172,3.12837976 L-39.3247279,3.19024665 L-36.6719672,3.25807151 L-34.0693207,3.33183996 L-31.5212193,3.41153762 L-29.0320937,3.49715013 L-26.6063747,3.58866311 L-26.0103715,3.61246162 L-26.0103715,3.61246162 L-25.4186773,3.63662778 L-23.0963761,3.73696451 L-20.8485585,3.84316578 L-20.2987614,3.87063075 L-20.2987614,3.87063075 L-19.7539657,3.89846112 L-17.6261814,4.01343224 L-15.5839578,4.13423196 L-15.08729,4.16534092 L-15.08729,4.16534092 L-14.5963159,4.19681305 L-12.690741,4.32632872 L-10.8818039,4.46163705 C-9.9435952,4.53534365 -9.04850905,4.61151566 -8.19957024,4.69014326 L-7.57156601,4.74957422 L-4.15422437,5.09562972 L0.35,5.572 L-3,5.218 L-3,462.616 L-811,462.616 L-811,3.339 L-807.654638,3.06248629 L-804.308257,2.79754011 C-803.198814,2.71180802 -802.095338,2.62865524 -800.997677,2.54806979 L-799.35553,2.42911561 L-796.096951,2.20272432 L-794.480294,2.09526923 L-794.480294,2.09526923 L-792.871907,1.99162921 L-789.679488,1.79575841 L-786.518789,1.61504006 L-784.95005,1.53034059 L-784.95005,1.53034059 L-783.388901,1.44940228 L-780.288917,1.29877321 L-777.217931,1.16308097 L-774.175034,1.0422537 L-772.663836,0.98739197 L-772.663836,0.98739197 L-771.15932,0.93621953 L-768.169881,0.844906588 C-757.751768,0.550989593 -747.799791,0.526254575 -738.1389,0.756835251 L-737.612738,0.770453436 L-737.612738,0.770453436 L-737.087328,0.784358798 L-733.949215,0.87397263 L-731.868858,0.939800119 L-728.761663,1.04809997 L-726.696622,1.12692382 L-723.604458,1.25552675 L-721.544142,1.34842501 L-719.482751,1.44725488 L-716.384942,1.60699878 L-714.313449,1.72141231 L-711.192544,1.90534023 L-709.100358,2.03641546 L-706.99693,2.17445722 L-704.880565,2.319638 L-701.678052,2.55117215 L-699.52193,2.7149551 L-697.34694,2.88648077 L-695.151387,3.06592164 L-692.933577,3.25345021 L-690.691815,3.44923896 L-688.424407,3.65346037 L-686.129657,3.86628693 L-682.632562,4.20203875 L-680.262047,4.43713282 L-677.85826,4.68143574 L-675.419506,4.93512 L-672.944092,5.19835808 L-669.158524,5.61150595 L-666.584043,5.89938323 L-663.96697,6.19741803 L-659.957795,6.66389292 L-655.843255,7.15419248 L-651.617633,7.66889886 L-648.736015,8.02588326 L-644.312545,8.58256131 L-639.762742,9.16519855 L-636.65653,9.56833263 L-631.883462,10.1955288 L-625.298138,11.0746868 L-618.447552,12.0041342 L-613.127379,12.7350522 L-589.625212,15.9292433 L-564.022853,12.2359598 L-558.915988,11.5222433 L-555.050002,10.9939132 L-551.158267,10.4720675 L-545.93696,9.78717066 L-542.002532,9.28227894 L-538.057259,8.78543478 L-532.787756,8.13630486 L-527.517523,7.50342698 L-523.570746,7.04010266 L-519.633992,6.58701433 L-515.711733,6.14463093 L-510.51233,5.57224904 L-505.357246,5.0208434 L-501.526392,4.62172353 L-496.474368,4.10970107 L-492.732982,3.74139516 L-490.263891,3.5035998 L-487.816479,3.27216009 L-485.392071,3.04721496 L-480.617565,2.61736427 L-478.270118,2.4127366 L-474.802429,2.11905797 L-470.285636,1.75297332 L-466.98393,1.49813286 L-463.760812,1.26071891 L-460.620754,1.04120042 L-457.568227,0.840046327 L-454.607703,0.657725588 L-451.743653,0.494707146 L-449.890092,0.396983263 L-448.08272,0.308185547 L-446.322864,0.228452945 L-444.611847,0.157924405 L-390.373836,-2.84217094e-14 L-386.759231,0.124444091 Z" id="Combined-Shape" fill="#000000" fill-rule="nonzero"></path>
    </g>
</svg>